# xmcd CD database file
#
# Track frame offsets:
#	150
#	16955
#	39564
#	56369
#
# Disc length: 1051 seconds
#
# Revision: 2
# Processed by: cddbd v1.5.2PL0 Copyright (c) Steve Scherf et al.
# Submitted via: CDex 1.70beta2
#
DISCID=27041904
DTITLE=緒方恵美 - innocent prisoner
DYEAR=2013
DGENRE=JPop
TTITLE0=innocent prisoner
TTITLE1=再生 -rebuild-[re:build ver.]
TTITLE2=innocent prisoner [Instrumental]
TTITLE3=再生 -rebuild-[re:build ver.]
EXTD=YEAR: 2013
EXTT0=
EXTT1=
EXTT2=
EXTT3=
PLAYORDER=
